<?xml version="1.0" encoding="UTF-8" standalone="no"?>
<!-- Generator: Adobe Illustrator 19.0.0, SVG Export Plug-In . SVG Version: 6.00 Build 0)  -->

<svg
   xmlns:dc="http://purl.org/dc/elements/1.1/"
   xmlns:cc="http://creativecommons.org/ns#"
   xmlns:rdf="http://www.w3.org/1999/02/22-rdf-syntax-ns#"
   xmlns:svg="http://www.w3.org/2000/svg"
   xmlns="http://www.w3.org/2000/svg"
   xmlns:sodipodi="http://sodipodi.sourceforge.net/DTD/sodipodi-0.dtd"
   xmlns:inkscape="http://www.inkscape.org/namespaces/inkscape"
   version="1.1"
   id="Layer_1"
   x="0px"
   y="0px"
   viewBox="0 0 512 512"
   style="enable-background:new 0 0 512 512;"
   xml:space="preserve"
   sodipodi:docname="icon.svg"
   inkscape:version="0.92.2 (5c3e80d, 2017-08-06)"
   inkscape:export-filename="H:\Projects\opensource\plutonium\modules\app\asset\icon.png"
   inkscape:export-xdpi="96"
   inkscape:export-ydpi="96"><metadata
     id="metadata51"><rdf:RDF><cc:Work
         rdf:about=""><dc:format>image/svg+xml</dc:format><dc:type
           rdf:resource="http://purl.org/dc/dcmitype/StillImage" /></cc:Work></rdf:RDF></metadata><defs
     id="defs49" /><sodipodi:namedview
     pagecolor="#ffffff"
     bordercolor="#666666"
     borderopacity="1"
     objecttolerance="10"
     gridtolerance="10"
     guidetolerance="10"
     inkscape:pageopacity="0"
     inkscape:pageshadow="2"
     inkscape:window-width="1920"
     inkscape:window-height="1013"
     id="namedview47"
     showgrid="false"
     inkscape:zoom="0.4609375"
     inkscape:cx="250.57627"
     inkscape:cy="256"
     inkscape:window-x="-9"
     inkscape:window-y="-9"
     inkscape:window-maximized="1"
     inkscape:current-layer="Layer_1" /><path
     style="fill:#4d4d4d;fill-opacity:1"
     d="M256,0c141.378,0,256,114.609,256,256S397.378,512,256,512C114.609,512,0,397.391,0,256  S114.609,0,256,0z"
     id="path2" /><path
     style="fill:#FCBB29;"
     d="M256,36.095c121.45,0,219.905,98.456,219.905,219.905S377.45,475.905,256,475.905  S36.095,377.45,36.095,256S134.55,36.095,256,36.095z"
     id="path4" /><g
     id="g14"
     style="fill:#4d4d4d;fill-opacity:1"><path
       style="fill:#4d4d4d;fill-opacity:1"
       d="M256,226.037c16.54,0,29.963,13.423,29.963,29.963S272.54,285.963,256,285.963   c-16.566,0-29.963-13.423-29.963-29.963S239.434,226.037,256,226.037z"
       id="path6" /><path
       style="fill:#4d4d4d;fill-opacity:1"
       d="M284.237,307.501l61.807,109.508c-26.588,15.046-57.324,23.625-90.044,23.625   c-33.377,0-64.654-8.914-91.615-24.514l62.876-108.903c8.45,4.895,18.266,7.703,28.739,7.703   C266.254,314.921,275.889,312.229,284.237,307.501z"
       id="path8" /><path
       style="fill:#4d4d4d;fill-opacity:1"
       d="M439.166,257.456H313.453c0-21.062-11.323-39.47-28.25-49.466l63.932-108.284   C403.033,131.588,439.166,190.303,439.166,257.456z"
       id="path10" /><path
       style="fill:#4d4d4d;fill-opacity:1"
       d="M162.852,99.705l63.932,108.284c-16.914,9.996-28.25,28.404-28.25,49.466H72.821   C72.821,190.303,108.967,131.588,162.852,99.705z"
       id="path12" /></g><g
     id="g16" /><g
     id="g18" /><g
     id="g20" /><g
     id="g22" /><g
     id="g24" /><g
     id="g26" /><g
     id="g28" /><g
     id="g30" /><g
     id="g32" /><g
     id="g34" /><g
     id="g36" /><g
     id="g38" /><g
     id="g40" /><g
     id="g42" /><g
     id="g44" /></svg>