<?xml version="1.0" encoding="UTF-8" standalone="no"?>
<!-- Created with Inkscape (http://www.inkscape.org/) -->

<svg
   xmlns:dc="http://purl.org/dc/elements/1.1/"
   xmlns:cc="http://creativecommons.org/ns#"
   xmlns:rdf="http://www.w3.org/1999/02/22-rdf-syntax-ns#"
   xmlns:svg="http://www.w3.org/2000/svg"
   xmlns="http://www.w3.org/2000/svg"
   xmlns:sodipodi="http://sodipodi.sourceforge.net/DTD/sodipodi-0.dtd"
   xmlns:inkscape="http://www.inkscape.org/namespaces/inkscape"
   width="138.683mm"
   height="24.135mm"
   viewBox="0 0 138.683 24.135"
   version="1.1"
   id="svg1071"
   inkscape:version="0.92.2 (5c3e80d, 2017-08-06)"
   sodipodi:docname="logo.svg">
  <defs
     id="defs1065" />
  <sodipodi:namedview
     id="base"
     pagecolor="#ffffff"
     bordercolor="#666666"
     borderopacity="1.0"
     inkscape:pageopacity="0.0"
     inkscape:pageshadow="2"
     inkscape:zoom="2.7301021"
     inkscape:cx="198.07189"
     inkscape:cy="45.609449"
     inkscape:document-units="mm"
     inkscape:current-layer="g1776"
     showgrid="false"
     inkscape:window-width="1920"
     inkscape:window-height="1013"
     inkscape:window-x="-9"
     inkscape:window-y="-9"
     inkscape:window-maximized="1" />
  <metadata
     id="metadata1068">
    <rdf:RDF>
      <cc:Work
         rdf:about="">
        <dc:format>image/svg+xml</dc:format>
        <dc:type
           rdf:resource="http://purl.org/dc/dcmitype/StillImage" />
        <dc:title />
      </cc:Work>
    </rdf:RDF>
  </metadata>
  <g
     inkscape:label="Layer 1"
     inkscape:groupmode="layer"
     id="layer1"
     transform="translate(0,-272.865)">
    <path
       inkscape:connector-curvature="0"
       style="fill:#9ff000;fill-opacity:0;stroke-width:0.26458332"
       d="m -204.99573,77.51964 c 32.13365,0 58.1832,26.04982 58.1832,58.1832 0,32.13338 -26.04955,58.18319 -58.1832,58.18319 -32.13365,0 -58.1832,-26.04955 -58.1832,-58.18319 0,-32.13365 26.04955,-58.1832 58.1832,-58.1832 z"
       id="path4-9" />
    <g
       id="g1776"
       transform="translate(227.19747,192.3354)">
      <g
         id="g846">
        <text
           xml:space="preserve"
           style="font-style:normal;font-variant:normal;font-weight:bold;font-stretch:normal;font-size:25.39999962px;line-height:1.25;font-family:'Courier New';-inkscape-font-specification:'Courier New Bold';letter-spacing:0px;word-spacing:0px;fill:#c70039;fill-opacity:1;stroke:none;stroke-width:0.26458332"
           x="-228.71056"
           y="95.573654"
           id="text1095"><tspan
             sodipodi:role="line"
             id="tspan1093"
             x="-228.71056"
             y="95.573654"
             style="font-style:normal;font-variant:normal;font-weight:bold;font-stretch:normal;font-size:25.39999962px;font-family:'Courier New';-inkscape-font-specification:'Courier New Bold';fill:#c70039;fill-opacity:1;stroke-width:0.26458332">PLUT</tspan></text>
        <text
           xml:space="preserve"
           style="font-style:normal;font-variant:normal;font-weight:bold;font-stretch:normal;font-size:25.39999962px;line-height:1.25;font-family:'Courier New';-inkscape-font-specification:'Courier New Bold';letter-spacing:0px;word-spacing:0px;fill:#c70039;fill-opacity:1;stroke:none;stroke-width:0.26458332"
           x="-150.04262"
           y="95.573662"
           id="text1095-7"><tspan
             sodipodi:role="line"
             id="tspan1093-6"
             x="-150.04262"
             y="95.573662"
             style="font-style:normal;font-variant:normal;font-weight:bold;font-stretch:normal;font-size:25.39999962px;font-family:'Courier New';-inkscape-font-specification:'Courier New Bold';fill:#c70039;fill-opacity:1;stroke-width:0.26458332">NIUM</tspan></text>
        <g
           id="g1761"
           transform="matrix(0.11379921,0,0,0.11379921,-137.83539,71.213209)"
           style="stroke-width:8.78740692">
          <path
             id="path2-9"
             d="m -190.69681,81.86752 c 37.40627,0 67.73334,30.32363 67.73334,67.73333 0,37.40971 -30.32707,67.73334 -67.73334,67.73334 -37.4097,0 -67.73333,-30.32363 -67.73333,-67.73334 0,-37.4097 30.32363,-67.73333 67.73333,-67.73333 z"
             style="fill:#4d4d4d;fill-opacity:1;stroke-width:2.32500148"
             inkscape:connector-curvature="0" />
          <path
             id="path4-3"
             d="m -190.69681,91.417656 c 32.13365,0 58.1832,26.049814 58.1832,58.183194 0,32.13339 -26.04955,58.1832 -58.1832,58.1832 -32.13365,0 -58.1832,-26.04955 -58.1832,-58.1832 0,-32.13364 26.04955,-58.183194 58.1832,-58.183194 z"
             style="fill:#ffc300;fill-opacity:1;stroke-width:2.32500148"
             inkscape:connector-curvature="0" />
          <path
             inkscape:connector-curvature="0"
             style="fill:#4d4d4d;stroke-width:2.32500148"
             d="m -190.69681,141.67314 c 4.37621,0 7.92771,3.5515 7.92771,7.92771 0,4.37621 -3.5515,7.92771 -7.92771,7.92771 -4.38308,0 -7.92771,-3.5515 -7.92771,-7.92771 0,-4.37621 3.54463,-7.92771 7.92771,-7.92771 z"
             id="path6-4" />
          <path
             inkscape:connector-curvature="0"
             style="fill:#4d4d4d;stroke-width:2.32500148"
             d="m -183.22577,163.22716 16.3531,28.97399 c -7.03474,3.98092 -15.16697,6.25078 -23.82414,6.25078 -8.831,0 -17.10637,-2.35849 -24.2398,-6.48599 l 16.63594,-28.81392 c 2.23573,1.29513 4.83288,2.03808 7.60386,2.03808 2.71304,2.7e-4 5.2623,-0.71199 7.47104,-1.96294 z"
             id="path8-1" />
          <path
             inkscape:connector-curvature="0"
             style="fill:#4d4d4d;stroke-width:2.32500148"
             d="m -142.23414,149.98609 h -33.26156 c 0,-5.57266 -2.99588,-10.44311 -7.47448,-13.08788 l 16.91534,-28.65014 c 14.26051,8.43544 23.8207,23.97045 23.8207,41.73802 z"
             id="path10-2" />
          <path
             inkscape:connector-curvature="0"
             style="fill:#4d4d4d;stroke-width:2.32500148"
             d="m -215.34222,108.2478 16.91535,28.65014 c -4.47517,2.64478 -7.47448,7.51523 -7.47448,13.08788 h -33.26157 c 0,-17.7673 9.56363,-33.30231 23.8207,-41.73802 z"
             id="path12-4" />
        </g>
      </g>
      <text
         xml:space="preserve"
         style="font-style:normal;font-variant:normal;font-weight:bold;font-stretch:normal;font-size:8.00176907px;line-height:1.25;font-family:'Courier New';-inkscape-font-specification:'Courier New Bold';letter-spacing:0px;word-spacing:0px;fill:#ffc300;fill-opacity:1;stroke:none;stroke-width:0.26458332"
         x="-227.43971"
         y="102.60075"
         id="text829"><tspan
           sodipodi:role="line"
           x="-227.43971"
           y="102.60075"
           style="font-style:normal;font-variant:normal;font-weight:bold;font-stretch:normal;font-family:'Courier New';-inkscape-font-specification:'Courier New Bold';fill:#ffc300;fill-opacity:1;stroke-width:0.26458332"
           id="tspan831">diceware passphrase generator</tspan></text>
    </g>
  </g>
</svg>
